<?xml version="1.0" encoding="UTF-8" standalone="no"?>
<!-- Created with Inkscape (http://www.inkscape.org/) -->

<svg
   width="360"
   height="360"
   viewBox="0 0 95.25 95.25"
   version="1.1"
   id="svg1"
   xml:space="preserve"
   xmlns="http://www.w3.org/2000/svg"
   xmlns:svg="http://www.w3.org/2000/svg"><defs
     id="defs1" /><g
     id="g18"
     transform="translate(122.09898,49.85242)"><path
       style="fill:#f4ecb9"
       d="M -74.473984,45.397572 H -122.09898 V -2.2274284 -49.852428 h 47.624996 47.625 V -2.2274284 45.397572 Z"
       id="path32" /><path
       style="fill:#7dc3c0"
       d="m -121.56982,45.397572 h -0.52916 V -2.2274284 -49.852428 h 47.624996 47.625 V -2.2274284 45.397572 h -2.116666 -2.116667 v -1.058334 -1.058333 h 1.5875 1.5875 v -9.525 -9.525 h -1.5875 -1.5875 v -1.5875 -1.5875 h -9.525 -9.525 v 1.5875 1.5875 h -1.5875 -1.5875 v 9.525 9.525 h 1.5875 1.5875 v 1.058333 1.058334 h -3.175 -3.175 v -3.175 -3.175 h -5.820833 -5.820834 v -4.7625 -4.7625 h 1.058334 1.058333 v -1.058334 -1.058333 h 4.7625 4.7625 v -3.175 -3.175 h -6.35 -6.35 v 1.5875 1.5875 h -1.5875 -1.5875 v 1.5875 1.5875 h -1.058333 -1.058334 v 8.995833 8.995834 h -5.291666 -5.291667 v -1.5875 -1.5875 h 1.5875 1.5875 v -1.5875 -1.5875 h 1.5875 1.5875 v -8.995834 -8.995833 h -3.175 -3.175 v 4.233333 4.233334 h -3.175 -3.175 v -4.233334 -4.233333 h -3.175 -3.175 v 7.408333 7.408334 h 6.35 6.35 v 1.5875 1.5875 h -6.35 -6.35 v 3.175 3.175 h -7.937503 -7.9375 v -4.7625 -4.7625 h 2.64584 2.64583 v -1.058334 -1.058333 h 1.5875 1.5875 v -1.5875 -1.5875 h 1.5875 1.5875 v -4.7625 -4.7625 h -9.525 -9.525 v 12.170833 12.170834 z m 46.037503,-45.50833377 h 1.058333 V -0.63992844 -1.1690951 h 0.529167 0.529167 v -1.0583333 -1.0583334 h -0.529167 -0.529167 v -0.5291666 -0.5291667 h -1.058333 -1.058333 v 0.5291667 0.5291666 h -0.529167 -0.529167 v 1.0583334 1.0583333 h 0.529167 0.529167 v 0.52916666 0.52916667 z M -41.136484,39.047572 h -5.820833 v -5.820834 -5.820833 h 5.820833 5.820834 v 5.820833 5.820834 z m -69.849996,-9.525 h -2.64584 v -1.058334 -1.058333 h 2.64584 2.64583 v 1.058333 1.058334 z"
       id="path31" /><path
       style="fill:#d69a7c"
       d="m -121.56982,45.397572 h -0.52916 V -2.2274284 -49.852428 h 47.624996 47.625 V -2.2274284 45.397572 h -2.116666 -2.116667 v -1.058334 -1.058333 h 1.5875 1.5875 v -9.525 -9.525 h -1.5875 -1.5875 v -1.5875 -1.5875 h -9.525 -9.525 v 1.5875 1.5875 h -1.5875 -1.5875 v 9.525 9.525 h 1.5875 1.5875 v 1.058333 1.058334 h -3.175 -3.175 v -3.175 -3.175 h -5.820833 -5.820834 v -4.7625 -4.7625 h 1.058334 1.058333 v -1.058334 -1.058333 h 4.7625 4.7625 v -3.175 -3.175 h -6.35 -6.35 v 1.5875 1.5875 h -1.5875 -1.5875 v 1.5875 1.5875 h -1.058333 -1.058334 v 8.995833 8.995834 h -5.291666 -5.291667 v -1.5875 -1.5875 h 1.5875 1.5875 v -1.5875 -1.5875 h 1.5875 1.5875 v -8.995834 -8.995833 h -3.175 -3.175 v 4.233333 4.233334 h -3.175 -3.175 v -4.233334 -4.233333 h -3.175 -3.175 v 7.408333 7.408334 h 6.35 6.35 v 1.5875 1.5875 h -6.35 -6.35 v 3.175 3.175 h -7.937503 -7.9375 v -4.7625 -4.7625 h 2.64584 2.64583 v -1.058334 -1.058333 h 1.5875 1.5875 v -1.5875 -1.5875 h 1.5875 1.5875 v -4.7625 -4.7625 h -9.525 -9.525 v 12.170833 12.170834 z m 46.037503,-45.50833377 h 1.058333 V -0.63992844 -1.1690951 h 0.529167 0.529167 v -1.0583333 -1.0583334 h -0.529167 -0.529167 v -0.5291666 -0.5291667 h -1.058333 -1.058333 v 0.5291667 0.5291666 h -0.529167 -0.529167 v 1.0583334 1.0583333 h 0.529167 0.529167 v 0.52916666 0.52916667 z m 12.7,-14.81666623 h 1.058333 v -0.529167 -0.529167 h 0.529167 0.529167 v -1.058333 -1.058333 h -0.529167 -0.529167 v -0.529167 -0.529167 h -1.058333 -1.058333 v 0.529167 0.529167 h -0.529167 -0.529167 v 1.058333 1.058333 h 0.529167 0.529167 v 0.529167 0.529167 z m 21.695833,53.975 h -5.820833 v -5.820834 -5.820833 h 5.820833 5.820834 v 5.820833 5.820834 z m -69.849996,-9.525 h -2.64584 v -1.058334 -1.058333 h 2.64584 2.64583 v 1.058333 1.058334 z"
       id="path30" /><path
       style="fill:#8b8ead"
       d="m -121.56982,45.397572 h -0.52916 V -2.2274284 -49.852428 h 47.624996 47.625 V -2.2274284 45.397572 h -2.116666 -2.116667 v -1.058334 -1.058333 h 1.5875 1.5875 v -9.525 -9.525 h -1.5875 -1.5875 v -1.5875 -1.5875 h -9.525 -9.525 v 1.5875 1.5875 h -1.5875 -1.5875 v 9.525 9.525 h 1.5875 1.5875 v 1.058333 1.058334 h -3.175 -3.175 v -3.175 -3.175 h -5.820833 -5.820834 v -4.7625 -4.7625 h 1.058334 1.058333 v -1.058334 -1.058333 h 4.7625 4.7625 v -3.175 -3.175 h -6.35 -6.35 v 1.5875 1.5875 h -1.5875 -1.5875 v 1.5875 1.5875 h -1.058333 -1.058334 v 8.995833 8.995834 h -5.291666 -5.291667 v -1.5875 -1.5875 h 1.5875 1.5875 v -1.5875 -1.5875 h 1.5875 1.5875 v -8.995834 -8.995833 h -3.175 -3.175 v 4.233333 4.233334 h -3.175 -3.175 v -4.233334 -4.233333 h -3.175 -3.175 v 7.408333 7.408334 h 6.35 6.35 v 1.5875 1.5875 h -6.35 -6.35 v 3.175 3.175 h -7.937503 -7.9375 v -4.7625 -4.7625 h 2.64584 2.64583 v -1.058334 -1.058333 h 1.5875 1.5875 v -1.5875 -1.5875 h 1.5875 1.5875 v -4.7625 -4.7625 h -9.525 -9.525 V 33.226738 45.397572 Z M -83.998984,2.0059049 h 1.058334 V 1.4767382 0.94757156 h 0.529166 0.529167 V -0.11076177 -1.1690951 h -0.529167 -0.529166 v -0.5291667 -0.5291666 h -1.058334 -1.058333 v 0.5291666 0.5291667 h -0.529167 -0.529166 v 1.05833333 1.05833333 h 0.529166 0.529167 V 1.4767382 2.0059049 Z m 8.466667,-2.11666667 h 1.058333 V -0.63992844 -1.1690951 h 0.529167 0.529167 v -1.0583333 -1.0583334 h -0.529167 -0.529167 v -0.5291666 -0.5291667 h -1.058333 -1.058333 v 0.5291667 0.5291666 h -0.529167 -0.529167 v 1.0583334 1.0583333 h 0.529167 0.529167 v 0.52916666 0.52916667 z m 12.7,-14.81666623 h 1.058333 v -0.529167 -0.529167 h 0.529167 0.529167 v -1.058333 -1.058333 h -0.529167 -0.529167 v -0.529167 -0.529167 h -1.058333 -1.058333 v 0.529167 0.529167 h -0.529167 -0.529167 v 1.058333 1.058333 h 0.529167 0.529167 v 0.529167 0.529167 z m 21.695833,53.975 h -5.820833 v -5.820834 -5.820833 h 5.820833 5.820834 v 5.820833 5.820834 z m -69.849996,-9.525 h -2.64584 v -1.058334 -1.058333 h 2.64584 2.64583 v 1.058333 1.058334 z"
       id="path29" /><path
       style="fill:#bfc640"
       d="m -121.56982,45.397572 h -0.52916 V -2.2274284 -49.852428 h 47.624996 47.625 V -2.2274284 45.397572 h -2.116666 -2.116667 v -1.058334 -1.058333 h 1.5875 1.5875 v -9.525 -9.525 h -1.5875 -1.5875 v -1.5875 -1.5875 h -9.525 -9.525 v 1.5875 1.5875 h -1.5875 -1.5875 v 9.525 9.525 h 1.5875 1.5875 v 1.058333 1.058334 h -3.175 -3.175 v -3.175 -3.175 h -5.820833 -5.820834 v -4.7625 -4.7625 h 1.058334 1.058333 v -1.058334 -1.058333 h 4.7625 4.7625 v -3.175 -3.175 h -6.35 -6.35 v 1.5875 1.5875 h -1.5875 -1.5875 v 1.5875 1.5875 h -1.058333 -1.058334 v 8.995833 8.995834 h -5.291666 -5.291667 v -1.5875 -1.5875 h 1.5875 1.5875 v -1.5875 -1.5875 h 1.5875 1.5875 v -8.995834 -8.995833 h -3.175 -3.175 v 4.233333 4.233334 h -3.175 -3.175 v -4.233334 -4.233333 h -3.175 -3.175 v 7.408333 7.408334 h 6.35 6.35 v 1.5875 1.5875 h -6.35 -6.35 v 3.175 3.175 h -7.937503 -7.9375 v -4.7625 -4.7625 h 2.64584 2.64583 v -1.058334 -1.058333 h 1.5875 1.5875 v -1.5875 -1.5875 h 1.5875 1.5875 v -4.7625 -4.7625 h -9.525 -9.525 V 33.226738 45.397572 Z M -83.998984,2.0059049 h 1.058334 V 1.4767382 0.94757156 h 0.529166 0.529167 V -0.11076177 -1.1690951 h -0.529167 -0.529166 v -0.5291667 -0.5291666 h -1.058334 -1.058333 v 0.5291666 0.5291667 h -0.529167 -0.529166 v 1.05833333 1.05833333 h 0.529166 0.529167 V 1.4767382 2.0059049 Z m 8.466667,-2.11666667 h 1.058333 V -0.63992844 -1.1690951 h 0.529167 0.529167 v -1.0583333 -1.0583334 h -0.529167 -0.529167 v -0.5291666 -0.5291667 h -1.058333 -1.058333 v 0.5291667 0.5291666 h -0.529167 -0.529167 v 1.0583334 1.0583333 h 0.529167 0.529167 v 0.52916666 0.52916667 z m 1.058333,-14.81666623 h 1.058334 v -0.529167 -0.529167 h 0.529166 0.529167 v -1.058333 -1.058333 h -0.529167 -0.529166 v -0.529167 -0.529167 h -1.058334 -1.058333 v 0.529167 0.529167 h -0.529167 -0.529166 v 1.058333 1.058333 h 0.529166 0.529167 v 0.529167 0.529167 z m 11.641667,0 h 1.058333 v -0.529167 -0.529167 h 0.529167 0.529167 v -1.058333 -1.058333 h -0.529167 -0.529167 v -0.529167 -0.529167 h -1.058333 -1.058333 v 0.529167 0.529167 h -0.529167 -0.529167 v 1.058333 1.058333 h 0.529167 0.529167 v 0.529167 0.529167 z m 21.695833,53.975 h -5.820833 v -5.820834 -5.820833 h 5.820833 5.820834 v 5.820833 5.820834 z m -69.849996,-9.525 h -2.64584 v -1.058334 -1.058333 h 2.64584 2.64583 v 1.058333 1.058334 z"
       id="path28" /><path
       style="fill:#e39339"
       d="m -121.56982,45.397572 h -0.52916 V -2.2274284 -49.852428 h 47.624996 47.625 V -2.2274284 45.397572 h -2.116666 -2.116667 v -1.058334 -1.058333 h 1.5875 1.5875 v -9.525 -9.525 h -1.5875 -1.5875 v -1.5875 -1.5875 h -9.525 -9.525 v 1.5875 1.5875 h -1.5875 -1.5875 v 9.525 9.525 h 1.5875 1.5875 v 1.058333 1.058334 h -3.175 -3.175 v -3.175 -3.175 h -5.820833 -5.820834 v -4.7625 -4.7625 h 1.058334 1.058333 v -1.058334 -1.058333 h 4.7625 4.7625 v -3.175 -3.175 h -6.35 -6.35 v 1.5875 1.5875 h -1.5875 -1.5875 v 1.5875 1.5875 h -1.058333 -1.058334 v 8.995833 8.995834 h -5.291666 -5.291667 v -1.5875 -1.5875 h 1.5875 1.5875 v -1.5875 -1.5875 h 1.5875 1.5875 v -8.995834 -8.995833 h -3.175 -3.175 v 4.233333 4.233334 h -3.175 -3.175 v -4.233334 -4.233333 h -3.175 -3.175 v 7.408333 7.408334 h 6.35 6.35 v 1.5875 1.5875 h -6.35 -6.35 v 3.175 3.175 h -7.937503 -7.9375 v -4.7625 -4.7625 h 2.64584 2.64583 v -1.058334 -1.058333 h 1.5875 1.5875 v -1.5875 -1.5875 h 1.5875 1.5875 v -4.7625 -4.7625 h -9.525 -9.525 v 12.170833 12.170834 z m 48.15417,-30.691667 h 1.058333 v -0.529167 -0.529166 h 0.529167 0.529166 v -1.058334 -1.058333 h -0.529166 -0.529167 v -0.529167 -0.529166 h -1.058333 -1.058334 v 0.529166 0.529167 h -0.529166 -0.529167 v 1.058333 1.058334 h 0.529167 0.529166 v 0.529166 0.529167 z M -83.998984,2.0059049 h 1.058334 V 1.4767382 0.94757156 h 0.529166 0.529167 V -0.11076177 -1.1690951 h -0.529167 -0.529166 v -0.5291667 -0.5291666 h -1.058334 -1.058333 v 0.5291666 0.5291667 h -0.529167 -0.529166 v 1.05833333 1.05833333 h 0.529166 0.529167 V 1.4767382 2.0059049 Z m 8.466667,-2.11666667 h 1.058333 V -0.63992844 -1.1690951 h 0.529167 0.529167 v -1.0583333 -1.0583334 h -0.529167 -0.529167 v -0.5291666 -0.5291667 h -1.058333 -1.058333 v 0.5291667 0.5291666 h -0.529167 -0.529167 v 1.0583334 1.0583333 h 0.529167 0.529167 v 0.52916666 0.52916667 z m 1.058333,-14.81666623 h 1.058334 v -0.529167 -0.529167 h 0.529166 0.529167 v -1.058333 -1.058333 h -0.529167 -0.529166 v -0.529167 -0.529167 h -1.058334 -1.058333 v 0.529167 0.529167 h -0.529167 -0.529166 v 1.058333 1.058333 h 0.529166 0.529167 v 0.529167 0.529167 z m 11.641667,0 h 1.058333 v -0.529167 -0.529167 h 0.529167 0.529167 v -1.058333 -1.058333 h -0.529167 -0.529167 v -0.529167 -0.529167 h -1.058333 -1.058333 v 0.529167 0.529167 h -0.529167 -0.529167 v 1.058333 1.058333 h 0.529167 0.529167 v 0.529167 0.529167 z m 21.695833,53.975 h -5.820833 v -5.820834 -5.820833 h 5.820833 5.820834 v 5.820833 5.820834 z m -69.849996,-9.525 h -2.64584 v -1.058334 -1.058333 h 2.64584 2.64583 v 1.058333 1.058334 z"
       id="path27" /><path
       style="fill:#d16370"
       d="m -121.56982,45.397572 h -0.52916 V -2.2274284 -49.852428 h 47.624996 47.625 V -2.2274284 45.397572 h -2.116666 -2.116667 v -1.058334 -1.058333 h 1.5875 1.5875 v -9.525 -9.525 h -1.5875 -1.5875 v -1.5875 -1.5875 h -9.525 -9.525 v 1.5875 1.5875 h -1.5875 -1.5875 v 9.525 9.525 h 1.5875 1.5875 v 1.058333 1.058334 h -3.175 -3.175 v -3.175 -3.175 h -5.820833 -5.820834 v -4.7625 -4.7625 h 1.058334 1.058333 v -1.058334 -1.058333 h 4.7625 4.7625 v -3.175 -3.175 h -6.35 -6.35 v 1.5875 1.5875 h -1.5875 -1.5875 v 1.5875 1.5875 h -1.058333 -1.058334 v 8.995833 8.995834 h -5.291666 -5.291667 v -1.5875 -1.5875 h 1.5875 1.5875 v -1.5875 -1.5875 h 1.5875 1.5875 v -8.995834 -8.995833 h -3.175 -3.175 v 4.233333 4.233334 h -3.175 -3.175 v -4.233334 -4.233333 h -3.175 -3.175 v 7.408333 7.408334 h 6.35 6.35 v 1.5875 1.5875 h -6.35 -6.35 v 3.175 3.175 h -7.937503 -7.9375 v -4.7625 -4.7625 h 2.64584 2.64583 v -1.058334 -1.058333 h 1.5875 1.5875 v -1.5875 -1.5875 h 1.5875 1.5875 v -4.7625 -4.7625 h -9.525 -9.525 v 12.170833 12.170834 z m 34.395836,-30.691667 h 1.058334 v -0.529167 -0.529166 h 0.529166 0.529167 v -1.058334 -1.058333 h -0.529167 -0.529166 v -0.529167 -0.529166 h -1.058334 -1.058333 v 0.529166 0.529167 h -0.529167 -0.529166 v 1.058333 1.058334 h 0.529166 0.529167 v 0.529166 0.529167 z m 13.758334,0 h 1.058333 v -0.529167 -0.529166 h 0.529167 0.529166 v -1.058334 -1.058333 h -0.529166 -0.529167 v -0.529167 -0.529166 h -1.058333 -1.058334 v 0.529166 0.529167 h -0.529166 -0.529167 v 1.058333 1.058334 h 0.529167 0.529166 v 0.529166 0.529167 z M -83.998984,2.0059049 h 1.058334 V 1.4767382 0.94757156 h 0.529166 0.529167 V -0.11076177 -1.1690951 h -0.529167 -0.529166 v -0.5291667 -0.5291666 h -1.058334 -1.058333 v 0.5291666 0.5291667 h -0.529167 -0.529166 v 1.05833333 1.05833333 h 0.529166 0.529167 V 1.4767382 2.0059049 Z m 8.466667,-2.11666667 h 1.058333 V -0.63992844 -1.1690951 h 0.529167 0.529167 v -1.0583333 -1.0583334 h -0.529167 -0.529167 v -0.5291666 -0.5291667 h -1.058333 -1.058333 v 0.5291667 0.5291666 h -0.529167 -0.529167 v 1.0583334 1.0583333 h 0.529167 0.529167 v 0.52916666 0.52916667 z m 1.058333,-14.81666623 h 1.058334 v -0.529167 -0.529167 h 0.529166 0.529167 v -1.058333 -1.058333 h -0.529167 -0.529166 v -0.529167 -0.529167 h -1.058334 -1.058333 v 0.529167 0.529167 h -0.529167 -0.529166 v 1.058333 1.058333 h 0.529166 0.529167 v 0.529167 0.529167 z m 11.641667,0 h 1.058333 v -0.529167 -0.529167 h 0.529167 0.529167 v -1.058333 -1.058333 h -0.529167 -0.529167 v -0.529167 -0.529167 h -1.058333 -1.058333 v 0.529167 0.529167 h -0.529167 -0.529167 v 1.058333 1.058333 h 0.529167 0.529167 v 0.529167 0.529167 z m 21.695833,53.975 h -5.820833 v -5.820834 -5.820833 h 5.820833 5.820834 v 5.820833 5.820834 z m -69.849996,-9.525 h -2.64584 v -1.058334 -1.058333 h 2.64584 2.64583 v 1.058333 1.058334 z"
       id="path26" /><path
       style="fill:#33849c"
       d="m -121.56982,45.397572 h -0.52916 V -2.2274284 -49.852428 h 47.624996 47.625 V -2.2274284 45.397572 h -2.116666 -2.116667 v -1.058334 -1.058333 h 1.5875 1.5875 v -9.525 -9.525 h -1.5875 -1.5875 v -1.5875 -1.5875 h -9.525 -9.525 v 1.5875 1.5875 h -1.5875 -1.5875 v 9.525 9.525 h 1.5875 1.5875 v 1.058333 1.058334 h -3.175 -3.175 v -3.175 -3.175 h -5.820833 -5.820834 v -4.7625 -4.7625 h 1.058334 1.058333 v -1.058334 -1.058333 h 4.7625 4.7625 v -3.175 -3.175 h -6.35 -6.35 v 1.5875 1.5875 h -1.5875 -1.5875 v 1.5875 1.5875 h -1.058333 -1.058334 v 8.995833 8.995834 h -5.291666 -5.291667 v -1.5875 -1.5875 h 1.5875 1.5875 v -1.5875 -1.5875 h 1.5875 1.5875 v -8.995834 -8.995833 h -3.175 -3.175 v 4.233333 4.233334 h -3.175 -3.175 v -4.233334 -4.233333 h -3.175 -3.175 v 7.408333 7.408334 h 6.35 6.35 v 1.5875 1.5875 h -6.35 -6.35 v 3.175 3.175 h -7.937503 -7.9375 v -4.7625 -4.7625 h 2.64584 2.64583 v -1.058334 -1.058333 h 1.5875 1.5875 v -1.5875 -1.5875 h 1.5875 1.5875 v -4.7625 -4.7625 h -9.525 -9.525 v 12.170833 12.170834 z m 34.395836,-30.691667 h 1.058334 v -0.529167 -0.529166 h 0.529166 0.529167 v -1.058334 -1.058333 h -0.529167 -0.529166 v -0.529167 -0.529166 h -1.058334 -1.058333 v 0.529166 0.529167 h -0.529167 -0.529166 v 1.058333 1.058334 h 0.529166 0.529167 v 0.529166 0.529167 z m 13.758334,0 h 1.058333 v -0.529167 -0.529166 h 0.529167 0.529166 v -1.058334 -1.058333 h -0.529166 -0.529167 v -0.529167 -0.529166 h -1.058333 -1.058334 v 0.529166 0.529167 h -0.529166 -0.529167 v 1.058333 1.058334 h 0.529167 0.529166 v 0.529166 0.529167 z M -83.998984,2.0059049 h 1.058334 V 1.4767382 0.94757156 h 0.529166 0.529167 V -0.11076177 -1.1690951 h -0.529167 -0.529166 v -0.5291667 -0.5291666 h -1.058334 -1.058333 v 0.5291666 0.5291667 h -0.529167 -0.529166 v 1.05833333 1.05833333 h 0.529166 0.529167 V 1.4767382 2.0059049 Z m 8.466667,-2.11666667 h 1.058333 V -0.63992844 -1.1690951 h 0.529167 0.529167 v -1.0583333 -1.0583334 h -0.529167 -0.529167 v -0.5291666 -0.5291667 h -1.058333 -1.058333 v 0.5291667 0.5291666 h -0.529167 -0.529167 v 1.0583334 1.0583333 h 0.529167 0.529167 v 0.52916666 0.52916667 z M -92.46565,-1.1690951 h 1.058333 v -0.5291667 -0.5291666 h 0.529167 0.529166 v -1.0583334 -1.0583333 h -0.529166 -0.529167 v -0.5291667 -0.5291666 h -1.058333 -1.058334 v 0.5291666 0.5291667 h -0.529166 -0.529167 v 1.0583333 1.0583334 h 0.529167 0.529166 v 0.5291666 0.5291667 z m 17.991666,-13.7583329 h 1.058334 v -0.529167 -0.529167 h 0.529166 0.529167 v -1.058333 -1.058333 h -0.529167 -0.529166 v -0.529167 -0.529167 h -1.058334 -1.058333 v 0.529167 0.529167 h -0.529167 -0.529166 v 1.058333 1.058333 h 0.529166 0.529167 v 0.529167 0.529167 z m 11.641667,0 h 1.058333 v -0.529167 -0.529167 h 0.529167 0.529167 v -1.058333 -1.058333 h -0.529167 -0.529167 v -0.529167 -0.529167 h -1.058333 -1.058333 v 0.529167 0.529167 h -0.529167 -0.529167 v 1.058333 1.058333 h 0.529167 0.529167 v 0.529167 0.529167 z m 21.695833,53.975 h -5.820833 v -5.820834 -5.820833 h 5.820833 5.820834 v 5.820833 5.820834 z m -69.849996,-9.525 h -2.64584 v -1.058334 -1.058333 h 2.64584 2.64583 v 1.058333 1.058334 z"
       id="path25" /><path
       style="fill:#6f367e"
       d="m -121.56982,45.397572 h -0.52916 V -2.2274284 -49.852428 h 47.624996 47.625 V -2.2274284 45.397572 h -2.116666 -2.116667 v -1.058334 -1.058333 h 1.5875 1.5875 v -9.525 -9.525 h -1.5875 -1.5875 v -1.5875 -1.5875 h -9.525 -9.525 v 1.5875 1.5875 h -1.5875 -1.5875 v 9.525 9.525 h 1.5875 1.5875 v 1.058333 1.058334 h -3.175 -3.175 v -3.175 -3.175 h -5.820833 -5.820834 v -4.7625 -4.7625 h 1.058334 1.058333 v -1.058334 -1.058333 h 4.7625 4.7625 v -3.175 -3.175 h -6.35 -6.35 v 1.5875 1.5875 h -1.5875 -1.5875 v 1.5875 1.5875 h -1.058333 -1.058334 v 8.995833 8.995834 h -5.291666 -5.291667 v -1.5875 -1.5875 h 1.5875 1.5875 v -1.5875 -1.5875 h 1.5875 1.5875 v -8.995834 -8.995833 h -3.175 -3.175 v 4.233333 4.233334 h -3.175 -3.175 v -4.233334 -4.233333 h -3.175 -3.175 v 7.408333 7.408334 h 6.35 6.35 v 1.5875 1.5875 h -6.35 -6.35 v 3.175 3.175 h -7.937503 -7.9375 v -4.7625 -4.7625 h 2.64584 2.64583 v -1.058334 -1.058333 h 1.5875 1.5875 v -1.5875 -1.5875 h 1.5875 1.5875 v -4.7625 -4.7625 h -9.525 -9.525 v 12.170833 12.170834 z m 34.395836,-30.691667 h 1.058334 v -0.529167 -0.529166 h 0.529166 0.529167 v -1.058334 -1.058333 h -0.529167 -0.529166 v -0.529167 -0.529166 h -1.058334 -1.058333 v 0.529166 0.529167 h -0.529167 -0.529166 v 1.058333 1.058334 h 0.529166 0.529167 v 0.529166 0.529167 z m 13.758334,0 h 1.058333 v -0.529167 -0.529166 h 0.529167 0.529166 v -1.058334 -1.058333 h -0.529166 -0.529167 v -0.529167 -0.529166 h -1.058333 -1.058334 v 0.529166 0.529167 h -0.529166 -0.529167 v 1.058333 1.058334 h 0.529167 0.529166 v 0.529166 0.529167 z M -83.998984,2.0059049 h 1.058334 V 1.4767382 0.94757156 h 0.529166 0.529167 V -0.11076177 -1.1690951 h -0.529167 -0.529166 v -0.5291667 -0.5291666 h -1.058334 -1.058333 v 0.5291666 0.5291667 h -0.529167 -0.529166 v 1.05833333 1.05833333 h 0.529166 0.529167 V 1.4767382 2.0059049 Z m 8.466667,-2.11666667 h 1.058333 V -0.63992844 -1.1690951 h 0.529167 0.529167 v -1.0583333 -1.0583334 h -0.529167 -0.529167 v -0.5291666 -0.5291667 h -1.058333 -1.058333 v 0.5291667 0.5291666 h -0.529167 -0.529167 v 1.0583334 1.0583333 h 0.529167 0.529167 v 0.52916666 0.52916667 z M -92.46565,-1.1690951 h 1.058333 v -0.5291667 -0.5291666 h 0.529167 0.529166 v -1.0583334 -1.0583333 h -0.529166 -0.529167 v -0.5291667 -0.5291666 h -1.058333 -1.058334 v 0.5291666 0.5291667 h -0.529166 -0.529167 v 1.0583333 1.0583334 h 0.529167 0.529166 v 0.5291666 0.5291667 z m 17.991666,-13.7583329 h 1.058334 v -0.529167 -0.529167 h 0.529166 0.529167 v -1.058333 -1.058333 h -0.529167 -0.529166 v -0.529167 -0.529167 h -1.058334 -1.058333 v 0.529167 0.529167 h -0.529167 -0.529166 v 1.058333 1.058333 h 0.529166 0.529167 v 0.529167 0.529167 z m 11.641667,0 h 1.058333 v -0.529167 -0.529167 h 0.529167 0.529167 v -1.058333 -1.058333 h -0.529167 -0.529167 v -0.529167 -0.529167 h 1.058334 1.058333 v -0.529166 -0.529167 h 0.529167 0.529166 v -1.058333 -1.058334 h -0.529166 -0.529167 v -0.529166 -0.529167 h -1.058333 -1.058334 v 0.529167 0.529166 h -0.529166 -0.529167 v 1.058334 1.058333 h 0.529167 0.529166 v 0.529167 0.529166 h -1.058333 -1.058333 v 0.529167 0.529167 h -0.529167 -0.529167 v 1.058333 1.058333 h 0.529167 0.529167 v 0.529167 0.529167 z m 21.695833,53.975 h -5.820833 v -5.820834 -5.820833 h 5.820833 5.820834 v 5.820833 5.820834 z m -69.849996,-9.525 h -2.64584 v -1.058334 -1.058333 h 2.64584 2.64583 v 1.058333 1.058334 z"
       id="path24" /><path
       style="fill:#637c33"
       d="m -121.56982,45.397572 h -0.52916 V -2.2274284 -49.852428 h 47.624996 47.625 V -2.2274284 45.397572 h -2.116666 -2.116667 v -1.058334 -1.058333 h 1.5875 1.5875 v -9.525 -9.525 h -1.5875 -1.5875 v -1.5875 -1.5875 h -9.525 -9.525 v 1.5875 1.5875 h -1.5875 -1.5875 v 9.525 9.525 h 1.5875 1.5875 v 1.058333 1.058334 h -3.175 -3.175 v -3.175 -3.175 h -5.820833 -5.820834 v -4.7625 -4.7625 h 1.058334 1.058333 v -1.058334 -1.058333 h 4.7625 4.7625 v -3.175 -3.175 h -6.35 -6.35 v 1.5875 1.5875 h -1.5875 -1.5875 v 1.5875 1.5875 h -1.058333 -1.058334 v 8.995833 8.995834 h -5.291666 -5.291667 v -1.5875 -1.5875 h 1.5875 1.5875 v -1.5875 -1.5875 h 1.5875 1.5875 v -8.995834 -8.995833 h -3.175 -3.175 v 4.233333 4.233334 h -3.175 -3.175 v -4.233334 -4.233333 h -3.175 -3.175 v 7.408333 7.408334 h 6.35 6.35 v 1.5875 1.5875 h -6.35 -6.35 v 3.175 3.175 h -7.937503 -7.9375 v -4.7625 -4.7625 h 2.64584 2.64583 v -1.058334 -1.058333 h 1.5875 1.5875 v -1.5875 -1.5875 h 1.5875 1.5875 v -4.7625 -4.7625 h -9.525 -9.525 v 12.170833 12.170834 z m 34.395836,-30.691667 h 1.058334 v -0.529167 -0.529166 h 0.529166 0.529167 v -1.058334 -1.058333 h -0.529167 -0.529166 v -0.529167 -0.529166 h -1.058334 -1.058333 v 0.529166 0.529167 h -0.529167 -0.529166 v 1.058333 1.058334 h 0.529166 0.529167 v 0.529166 0.529167 z m 13.758334,0 h 1.058333 v -0.529167 -0.529166 h 0.529167 0.529166 v -1.058334 -1.058333 h -0.529166 -0.529167 v -0.529167 -0.529166 h -1.058333 -1.058334 v 0.529166 0.529167 h -0.529166 -0.529167 v 1.058333 1.058334 h 0.529167 0.529166 v 0.529166 0.529167 z M -83.998984,2.0059049 h 1.058334 V 1.4767382 0.94757156 h 0.529166 0.529167 V -0.11076177 -1.1690951 h -0.529167 -0.529166 v -0.5291667 -0.5291666 h -1.058334 -1.058333 v 0.5291666 0.5291667 h -0.529167 -0.529166 v 1.05833333 1.05833333 h 0.529166 0.529167 V 1.4767382 2.0059049 Z m 8.466667,-2.11666667 h 1.058333 V -0.63992844 -1.1690951 h 0.529167 0.529167 v -1.0583333 -1.0583334 h -0.529167 -0.529167 v -0.5291666 -0.5291667 h -1.058333 -1.058333 v 0.5291667 0.5291666 h -0.529167 -0.529167 v 1.0583334 1.0583333 h 0.529167 0.529167 v 0.52916666 0.52916667 z M -92.46565,-1.1690951 h 1.058333 v -0.5291667 -0.5291666 h 0.529167 0.529166 v -1.0583334 -1.0583333 h -0.529166 -0.529167 v -0.5291667 -0.5291666 h -1.058333 -1.058334 v 0.5291666 0.5291667 h -0.529166 -0.529167 v 1.0583333 1.0583334 h 0.529167 0.529166 v 0.5291666 0.5291667 z m 8.466666,-13.7583329 h 1.058334 v -0.529167 -0.529167 h 0.529166 0.529167 v -1.058333 -1.058333 h -0.529167 -0.529166 v -0.529167 -0.529167 h -1.058334 -1.058333 v 0.529167 0.529167 h -0.529167 -0.529166 v 1.058333 1.058333 h 0.529166 0.529167 v 0.529167 0.529167 z m 9.525,0 h 1.058334 v -0.529167 -0.529167 h 0.529166 0.529167 v -1.058333 -1.058333 h -0.529167 -0.529166 v -0.529167 -0.529167 h -1.058334 -1.058333 v 0.529167 0.529167 h -0.529167 -0.529166 v 1.058333 1.058333 h 0.529166 0.529167 v 0.529167 0.529167 z m 11.641667,0 h 1.058333 v -0.529167 -0.529167 h 0.529167 0.529167 v -1.058333 -1.058333 h -0.529167 -0.529167 v -0.529167 -0.529167 h 1.058334 1.058333 v -0.529166 -0.529167 h 0.529167 0.529166 v -1.058333 -1.058334 h -0.529166 -0.529167 v -0.529166 -0.529167 h -1.058333 -1.058334 v 0.529167 0.529166 h -0.529166 -0.529167 v 1.058334 1.058333 h 0.529167 0.529166 v 0.529167 0.529166 h -1.058333 -1.058333 v 0.529167 0.529167 h -0.529167 -0.529167 v 1.058333 1.058333 h 0.529167 0.529167 v 0.529167 0.529167 z m 21.695833,53.975 h -5.820833 v -5.820834 -5.820833 h 5.820833 5.820834 v 5.820833 5.820834 z m -69.849996,-9.525 h -2.64584 v -1.058334 -1.058333 h 2.64584 2.64583 v 1.058333 1.058334 z"
       id="path23" /><path
       style="fill:#9c2f3a"
       d="m -121.56982,45.397572 h -0.52916 V -2.2274284 -49.852428 h 47.624996 47.625 V -2.2274284 45.397572 h -2.116666 -2.116667 v -1.058334 -1.058333 h 1.5875 1.5875 v -9.525 -9.525 h -1.5875 -1.5875 v -1.5875 -1.5875 h -9.525 -9.525 v 1.5875 1.5875 h -1.5875 -1.5875 v 9.525 9.525 h 1.5875 1.5875 v 1.058333 1.058334 h -3.175 -3.175 v -3.175 -3.175 h -5.820833 -5.820834 v -4.7625 -4.7625 h 1.058334 1.058333 v -1.058334 -1.058333 h 4.7625 4.7625 v -3.175 -3.175 h -6.35 -6.35 v 1.5875 1.5875 h -1.5875 -1.5875 v 1.5875 1.5875 h -1.058333 -1.058334 v 8.995833 8.995834 h -5.291666 -5.291667 v -1.5875 -1.5875 h 1.5875 1.5875 v -1.5875 -1.5875 h 1.5875 1.5875 v -8.995834 -8.995833 h -3.175 -3.175 v 4.233333 4.233334 h -3.175 -3.175 v -4.233334 -4.233333 h -3.175 -3.175 v 7.408333 7.408334 h 6.35 6.35 v 1.5875 1.5875 h -6.35 -6.35 v 3.175 3.175 h -7.937503 -7.9375 v -4.7625 -4.7625 h 2.64584 2.64583 v -1.058334 -1.058333 h 1.5875 1.5875 v -1.5875 -1.5875 h 1.5875 1.5875 v -4.7625 -4.7625 h -9.525 -9.525 v 12.170833 12.170834 z m 34.395836,-30.691667 h 1.058334 v -0.529167 -0.529166 h 0.529166 0.529167 v -1.058334 -1.058333 h -0.529167 -0.529166 v -0.529167 -0.529166 h -1.058334 -1.058333 v 0.529166 0.529167 h -0.529167 -0.529166 v 1.058333 1.058334 h 0.529166 0.529167 v 0.529166 0.529167 z m 13.758334,0 h 1.058333 v -0.529167 -0.529166 h 0.529167 0.529166 v -1.058334 -1.058333 h -0.529166 -0.529167 v -0.529167 -0.529166 h -1.058333 -1.058334 v 0.529166 0.529167 h -0.529166 -0.529167 v 1.058333 1.058334 h 0.529167 0.529166 v 0.529166 0.529167 z m 3.175,-11.6416668 h 1.058333 V 2.5350716 2.0059049 h 0.529167 0.529166 V 0.94757156 -0.11076177 h -0.529166 -0.529167 V -0.63992844 -1.1690951 h -1.058333 -1.058334 v 0.52916666 0.52916667 h -0.529166 -0.529167 V 0.94757156 2.0059049 h 0.529167 0.529166 V 2.5350716 3.0642382 Z M -83.998984,2.0059049 h 1.058334 V 1.4767382 0.94757156 h 0.529166 0.529167 V -0.11076177 -1.1690951 h -0.529167 -0.529166 v -0.5291667 -0.5291666 h -1.058334 -1.058333 v 0.5291666 0.5291667 h -0.529167 -0.529166 v 1.05833333 1.05833333 h 0.529166 0.529167 V 1.4767382 2.0059049 Z m 8.466667,-2.11666667 h 1.058333 V -0.63992844 -1.1690951 h 0.529167 0.529167 v -1.0583333 -1.0583334 h -0.529167 -0.529167 v -0.5291666 -0.5291667 h -1.058333 -1.058333 v 0.5291667 0.5291666 h -0.529167 -0.529167 v 1.0583334 1.0583333 h 0.529167 0.529167 v 0.52916666 0.52916667 z M -92.46565,-1.1690951 h 1.058333 v -0.5291667 -0.5291666 h 0.529167 0.529166 v -1.0583334 -1.0583333 h -0.529166 -0.529167 v -0.5291667 -0.5291666 h -1.058333 -1.058334 v 0.5291666 0.5291667 h -0.529166 -0.529167 v 1.0583333 1.0583334 h 0.529167 0.529166 v 0.5291666 0.5291667 z m 8.466666,-13.7583329 h 1.058334 v -0.529167 -0.529167 h 0.529166 0.529167 v -1.058333 -1.058333 h -0.529167 -0.529166 v -0.529167 -0.529167 h -1.058334 -1.058333 v 0.529167 0.529167 h -0.529167 -0.529166 v 1.058333 1.058333 h 0.529166 0.529167 v 0.529167 0.529167 z m 9.525,0 h 1.058334 v -0.529167 -0.529167 h 0.529166 0.529167 v -1.058333 -1.058333 h -0.529167 -0.529166 v -0.529167 -0.529167 h -1.058334 -1.058333 v 0.529167 0.529167 h -0.529167 -0.529166 v 1.058333 1.058333 h 0.529166 0.529167 v 0.529167 0.529167 z m 11.641667,0 h 1.058333 v -0.529167 -0.529167 h 0.529167 0.529167 v -1.058333 -1.058333 h -0.529167 -0.529167 v -0.529167 -0.529167 h 1.058334 1.058333 v -0.529166 -0.529167 h 0.529167 0.529166 v -1.058333 -1.058334 h -0.529166 -0.529167 v -0.529166 -0.529167 h -1.058333 -1.058334 v 0.529167 0.529166 h -0.529166 -0.529167 v 1.058334 1.058333 h 0.529167 0.529166 v 0.529167 0.529166 h -1.058333 -1.058333 v 0.529167 0.529167 h -0.529167 -0.529167 v 1.058333 1.058333 h 0.529167 0.529167 v 0.529167 0.529167 z m 21.695833,53.975 h -5.820833 v -5.820834 -5.820833 h 5.820833 5.820834 v 5.820833 5.820834 z m -69.849996,-9.525 h -2.64584 v -1.058334 -1.058333 h 2.64584 2.64583 v 1.058333 1.058334 z"
       id="path22" /><path
       style="fill:#574462"
       d="m -121.56982,45.397572 h -0.52916 V -2.2274284 -49.852428 h 47.624996 47.625 V -2.2274284 45.397572 h -2.116666 -2.116667 v -1.058334 -1.058333 h 1.5875 1.5875 v -9.525 -9.525 h -1.5875 -1.5875 v -1.5875 -1.5875 h -9.525 -9.525 v 1.5875 1.5875 h -1.5875 -1.5875 v 9.525 9.525 h 1.5875 1.5875 v 1.058333 1.058334 h -3.175 -3.175 v -3.175 -3.175 h -5.820833 -5.820834 v -4.7625 -4.7625 h 1.058334 1.058333 v -1.058334 -1.058333 h 4.7625 4.7625 v -3.175 -3.175 h -6.35 -6.35 v 1.5875 1.5875 h -1.5875 -1.5875 v 1.5875 1.5875 h -1.058333 -1.058334 v 8.995833 8.995834 h -5.291666 -5.291667 v -1.5875 -1.5875 h 1.5875 1.5875 v -1.5875 -1.5875 h 1.5875 1.5875 v -8.995834 -8.995833 h -3.175 -3.175 v 4.233333 4.233334 h -3.175 -3.175 v -4.233334 -4.233333 h -3.175 -3.175 v 7.408333 7.408334 h 6.35 6.35 v 1.5875 1.5875 h -6.35 -6.35 v 3.175 3.175 h -7.937503 -7.9375 v -4.7625 -4.7625 h 2.64584 2.64583 v -1.058334 -1.058333 h 1.5875 1.5875 v -1.5875 -1.5875 h 1.5875 1.5875 v -4.7625 -4.7625 h -9.525 -9.525 v 12.170833 12.170834 z m 34.395836,-30.691667 h 1.058334 v -0.529167 -0.529166 h 0.529166 0.529167 v -1.058334 -1.058333 h -0.529167 -0.529166 v -0.529167 -0.529166 h -1.058334 -1.058333 v 0.529166 0.529167 h -0.529167 -0.529166 v 1.058333 1.058334 h 0.529166 0.529167 v 0.529166 0.529167 z m 13.758334,0 h 1.058333 v -0.529167 -0.529166 h 0.529167 0.529166 v -1.058334 -1.058333 h -0.529166 -0.529167 v -0.529167 -0.529166 h -1.058333 -1.058334 v 0.529166 0.529167 h -0.529166 -0.529167 v 1.058333 1.058334 h 0.529167 0.529166 v 0.529166 0.529167 z m 3.175,-11.6416668 h 1.058333 V 2.5350716 2.0059049 h 0.529167 0.529166 V 0.94757156 -0.11076177 h -0.529166 -0.529167 V -0.63992844 -1.1690951 h -1.058333 -1.058334 v 0.52916666 0.52916667 h -0.529166 -0.529167 V 0.94757156 2.0059049 h 0.529167 0.529166 V 2.5350716 3.0642382 Z M -83.998984,2.0059049 h 1.058334 V 1.4767382 0.94757156 h 0.529166 0.529167 V -0.11076177 -1.1690951 h -0.529167 -0.529166 v -0.5291667 -0.5291666 h -1.058334 -1.058333 v 0.5291666 0.5291667 h -0.529167 -0.529166 v 1.05833333 1.05833333 h 0.529166 0.529167 V 1.4767382 2.0059049 Z m -8.466666,-2.11666667 h 1.058333 V -0.63992844 -1.1690951 h 0.529167 0.529166 v -1.5875 -1.5875 h -0.529166 -0.529167 v -0.5291667 -0.5291666 h -1.058333 -1.058334 v 0.5291666 0.5291667 h -0.529166 -0.529167 v 1.5875 1.5875 h 0.529167 0.529166 v 0.52916666 0.52916667 z m 16.933333,0 h 1.058333 V -0.63992844 -1.1690951 h 0.529167 0.529167 v -1.0583333 -1.0583334 h -0.529167 -0.529167 v -0.5291666 -0.5291667 h -1.058333 -1.058333 v 0.5291667 0.5291666 h -0.529167 -0.529167 v 1.0583334 1.0583333 h 0.529167 0.529167 v 0.52916666 0.52916667 z M -83.998984,-14.927428 h 1.058334 v -0.529167 -0.529167 h 0.529166 0.529167 v -1.058333 -1.058333 h -0.529167 -0.529166 v -0.529167 -0.529167 h -1.058334 -1.058333 v 0.529167 0.529167 h -0.529167 -0.529166 v 1.058333 1.058333 h 0.529166 0.529167 v 0.529167 0.529167 z m 9.525,0 h 1.058334 v -0.529167 -0.529167 h 0.529166 0.529167 v -1.058333 -1.058333 h -0.529167 -0.529166 v -0.529167 -0.529167 h -1.058334 -1.058333 v 0.529167 0.529167 h -0.529167 -0.529166 v 1.058333 1.058333 h 0.529166 0.529167 v 0.529167 0.529167 z m 11.641667,0 h 1.058333 v -0.529167 -0.529167 h 0.529167 0.529167 v -1.058333 -1.058333 h -0.529167 -0.529167 v -0.529167 -0.529167 h 1.058334 1.058333 v -0.529166 -0.529167 h 0.529167 0.529166 v -1.058333 -1.058334 h -0.529166 -0.529167 v -0.529166 -0.529167 h -1.058333 -1.058334 v 0.529167 0.529166 h -0.529166 -0.529167 v 1.058334 1.058333 h 0.529167 0.529166 v 0.529167 0.529166 h -1.058333 -1.058333 v 0.529167 0.529167 h -0.529167 -0.529167 v 1.058333 1.058333 h 0.529167 0.529167 v 0.529167 0.529167 z m 21.695833,53.975 h -5.820833 v -5.820834 -5.820833 h 5.820833 5.820834 v 5.820833 5.820834 z m -69.849996,-9.525 h -2.64584 v -1.058334 -1.058333 h 2.64584 2.64583 v 1.058333 1.058334 z"
       id="path21" /><path
       style="fill:#16424a"
       d="m -121.56982,45.397572 h -0.52916 V -2.2274284 -49.852428 h 47.624996 47.625 V -2.2274284 45.397572 h -2.116666 -2.116667 v -1.058334 -1.058333 h 1.5875 1.5875 v -9.525 -9.525 h -1.5875 -1.5875 v -1.5875 -1.5875 h -9.525 -9.525 v 1.5875 1.5875 h -1.5875 -1.5875 v 9.525 9.525 h 1.5875 1.5875 v 1.058333 1.058334 h -3.175 -3.175 v -3.175 -3.175 h -5.820833 -5.820834 v -4.7625 -4.7625 h 1.058334 1.058333 v -1.058334 -1.058333 h 4.7625 4.7625 v -2.645833 -2.645834 h 1.058333 1.058334 v -0.529166 -0.529167 h -4.233334 -4.233333 v -0.529167 -0.529166 h 1.058333 1.058334 v -0.529167 -0.529167 h 1.058333 1.058333 v -0.529166 -0.529167 h 1.058334 1.058333 v -0.529167 -0.529166 h 1.058333 1.058334 v -0.529167 -0.529167 h 1.058333 1.058333 v -0.529166 -0.529167 h 1.058334 1.058333 v -0.529167 -0.529166 h 1.058333 1.058334 v -0.529167 -0.529167 h 1.058333 1.058333 v -0.529166 -0.529167 h 1.058334 1.058333 v -0.529167 -0.529166 h 1.058333 1.058334 V 9.4142382 8.3559049 h -1.058334 -1.058333 v 0.5291667 0.5291666 h -1.058333 -1.058334 v 0.5291667 0.5291671 h -1.058333 -1.058333 v 0.529166 0.529167 h -1.058334 -1.058333 v 0.529167 0.529166 h -1.058333 -1.058334 v 0.529167 0.529167 h -1.058333 -1.058333 v 0.529166 0.529167 h -1.058334 -1.058333 v 0.529167 0.529166 h -1.058333 -1.058334 v 0.529167 0.529167 h -1.058333 -1.058333 v 0.529166 0.529167 h -1.058334 -1.058333 v 0.529167 0.529166 h -1.058333 -1.058334 v 0.529167 0.529167 h -1.058333 -1.058333 v 0.529166 0.529167 h -1.058334 -1.058333 v 0.529167 0.529166 h -1.058333 -1.058334 v 0.529167 0.529167 h -2.645833 -2.645833 v -0.529167 -0.529167 h -1.058334 -1.058333 v -0.529166 -0.529167 h -1.058333 -1.058334 v -0.529167 -0.529166 h -1.058333 -1.058333 v -0.529167 -0.529167 h -1.058334 -1.058333 v -0.529166 -0.529167 h -1.058333 -1.058334 v -0.529167 -0.529166 h -1.058333 -1.058333 v -0.529167 -0.529167 h -1.058334 -1.058333 v -0.529166 -0.529167 h -1.058333 -1.058334 v -0.529167 -0.529166 h -1.058333 -1.058333 v -0.529167 -0.529167 h -1.058334 -1.058333 v -0.529166 -0.529167 h -1.058333 -1.058334 v -0.529167 -0.529166 h -1.058336 -1.05833 V 9.9434049 9.4142382 h -1.05833 -1.05834 V 8.8850716 8.3559049 h -1.05833 -1.05833 v 1.0583333 1.0583338 h 1.05833 1.05833 v 0.529166 0.529167 h 1.05834 1.05833 v 0.529167 0.529166 h 1.05833 1.058336 v 0.529167 0.529167 h 1.058334 1.058333 v 0.529166 0.529167 h 1.058333 1.058334 v 0.529167 0.529166 h 1.058333 1.058333 v 0.529167 0.529167 h 1.058334 1.058333 v 0.529166 0.529167 h 1.058333 1.058334 v 0.529167 0.529166 h 1.058333 1.058333 v 0.529167 0.529167 h 1.058334 1.058333 v 2.116666 2.116667 h -1.058333 -1.058334 v 0.529167 0.529166 h 1.058334 1.058333 v 2.116667 2.116667 h -3.175 -3.175 v -3.175 -3.175 h 1.058333 1.058334 v -0.529167 -0.529167 h -1.058334 -1.058333 v -0.529166 -0.529167 h -1.058333 -1.058334 v -0.529167 -0.529166 h -1.058333 -1.058333 v 0.529166 0.529167 h -1.058334 -1.058333 v 7.408333 7.408334 h 6.35 6.35 v 1.5875 1.5875 h -6.35 -6.35 v 3.175 3.175 h -7.937503 -7.9375 v -4.7625 -4.7625 h 2.64584 2.64583 v -1.058334 -1.058333 h 1.5875 1.5875 v -1.5875 -1.5875 h 1.5875 1.5875 v -4.7625 -4.7625 h -9.525 -9.525 v 12.170833 12.170834 z m 33.337503,-21.166667 h 1.058333 v -0.529167 -0.529166 h -1.058333 -1.058333 v 0.529166 0.529167 z m 34.925,-3.175 h 1.058333 v -0.529167 -0.529166 h 1.058334 1.058333 v -0.529167 -0.529167 h 1.058333 1.058334 v -0.529166 -0.529167 h 1.058333 1.058333 v -0.529167 -0.529166 h 1.058334 1.058333 v -0.529167 -0.529167 h 1.058333 1.058334 v -0.529166 -0.529167 h 1.058333 1.058333 v -0.529167 -0.529166 h 1.058334 1.058333 v -0.529167 -0.529167 h 1.058333 1.058334 v -0.529166 -0.529167 h -1.058334 -1.058333 v 0.529167 0.529166 h -1.058333 -1.058334 v 0.529167 0.529167 h -1.058333 -1.058333 v 0.529166 0.529167 h -1.058334 -1.058333 v 0.529167 0.529166 h -1.058333 -1.058334 v 0.529167 0.529167 h -1.058333 -1.058333 v 0.529166 0.529167 h -1.058334 -1.058333 v 0.529167 0.529166 h -1.058333 -1.058334 v 0.529167 0.529167 h -1.058333 -1.058333 v 0.529166 0.529167 z m -43.391667,-1.058333 h 1.058334 v -0.529167 -0.529167 h -1.058334 -1.058333 v -0.529166 -0.529167 h -1.058333 -1.058334 v -0.529167 -0.529166 h -1.058336 -1.05833 v -0.529167 -0.529167 h -1.05833 -1.05834 v -0.529166 -0.529167 h -1.05833 -1.05833 v -0.529167 -0.529166 h -1.05834 -1.05833 v -0.529167 -0.529167 h -1.05833 -1.05834 v -0.529166 -0.529167 h -1.05833 -1.05833 v 0.529167 0.529166 h 1.05833 1.05833 v 0.529167 0.529167 h 1.05834 1.05833 v 0.529166 0.529167 h 1.05833 1.05834 v 0.529167 0.529166 h 1.05833 1.05833 v 0.529167 0.529167 h 1.05834 1.05833 v 0.529166 0.529167 h 1.05833 1.058336 v 0.529167 0.529166 h 1.058334 1.058333 v 0.529167 0.529167 z m 9.525,-5.291667 h 1.058334 v -0.529167 -0.529166 h 0.529166 0.529167 v -1.058334 -1.058333 h -0.529167 -0.529166 v -0.529167 -0.529166 h -1.058334 -1.058333 v 0.529166 0.529167 h -0.529167 -0.529166 v 1.058333 1.058334 h 0.529166 0.529167 v 0.529166 0.529167 z m 13.758334,0 h 1.058333 v -0.529167 -0.529166 h 0.529167 0.529166 v -1.058334 -1.058333 h -0.529166 -0.529167 v -0.529167 -0.529166 h -1.058333 -1.058334 v 0.529166 0.529167 h -0.529166 -0.529167 v 1.058333 1.058334 h 0.529167 0.529166 v 0.529166 0.529167 z m 3.175,-11.6416668 h 1.058333 V 2.5350716 2.0059049 h 0.529167 0.529166 V 0.94757156 -0.11076177 h -0.529166 -0.529167 V -0.63992844 -1.1690951 h -1.058333 -1.058334 v 0.52916666 0.52916667 h -0.529166 -0.529167 V 0.94757156 2.0059049 h 0.529167 0.529166 V 2.5350716 3.0642382 Z M -83.998984,2.0059049 h 1.058334 V 1.4767382 0.94757156 h 0.529166 0.529167 V -0.11076177 -1.1690951 h -0.529167 -0.529166 v -0.5291667 -0.5291666 h -1.058334 -1.058333 v 0.5291666 0.5291667 h -0.529167 -0.529166 v 1.05833333 1.05833333 h 0.529166 0.529167 V 1.4767382 2.0059049 Z m -8.466666,-2.11666667 h 1.058333 V -0.63992844 -1.1690951 h 0.529167 0.529166 v -1.5875 -1.5875 h -0.529166 -0.529167 v -0.5291667 -0.5291666 h -1.058333 -1.058334 v 0.5291666 0.5291667 h -0.529166 -0.529167 v 1.5875 1.5875 h 0.529167 0.529166 v 0.52916666 0.52916667 z m 16.933333,0 h 1.058333 V -0.63992844 -1.1690951 h 0.529167 0.529167 v -1.0583333 -1.0583334 h -0.529167 -0.529167 v -0.5291666 -0.5291667 h -1.058333 -1.058333 v 0.5291667 0.5291666 h -0.529167 -0.529167 v 1.0583334 1.0583333 h 0.529167 0.529167 v 0.52916666 0.52916667 z M -77.648984,-10.694095 h 1.058334 v -0.529167 -0.529166 h 0.529166 0.529167 v -1.058334 -1.058333 h -0.529167 -0.529166 v -0.529167 -0.529166 h -1.058334 -1.058333 v 0.529166 0.529167 h -0.529167 -0.529166 v 1.058333 1.058334 h 0.529166 0.529167 v 0.529166 0.529167 z m -6.35,-4.233333 h 1.058334 v -0.529167 -0.529167 h 0.529166 0.529167 v -1.058333 -1.058333 h -0.529167 -0.529166 v -0.529167 -0.529167 h -1.058334 -1.058333 v 0.529167 0.529167 h -0.529167 -0.529166 v 1.058333 1.058333 h 0.529166 0.529167 v 0.529167 0.529167 z m 9.525,0 h 1.058334 v -0.529167 -0.529167 h 0.529166 0.529167 v -1.058333 -1.058333 h -0.529167 -0.529166 v -0.529167 -0.529167 h -1.058334 -1.058333 v 0.529167 0.529167 h -0.529167 -0.529166 v 1.058333 1.058333 h 0.529166 0.529167 v 0.529167 0.529167 z m 11.641667,0 h 1.058333 v -0.529167 -0.529167 h 0.529167 0.529167 v -1.058333 -1.058333 h -0.529167 -0.529167 v -0.529167 -0.529167 h 1.058334 1.058333 v -0.529166 -0.529167 h 0.529167 0.529166 v -1.058333 -1.058334 h -0.529166 -0.529167 v -0.529166 -0.529167 h -1.058333 -1.058334 v 0.529167 0.529166 h -0.529166 -0.529167 v 1.058334 1.058333 h 0.529167 0.529166 v 0.529167 0.529166 h -1.058333 -1.058333 v 0.529167 0.529167 h -0.529167 -0.529167 v 1.058333 1.058333 h 0.529167 0.529167 v 0.529167 0.529167 z m -16.933333,60.325 h -5.291667 v -1.5875 -1.5875 h 1.5875 1.5875 v -1.5875 -1.5875 h 1.5875 1.5875 v -4.7625 -4.7625 h 1.058333 1.058334 v -0.529167 -0.529167 h -1.058334 -1.058333 v -2.116666 -2.116667 h 1.058333 1.058334 v 0.529167 0.529166 h 2.116666 2.116667 v 1.058334 1.058333 h -1.058333 -1.058334 v 1.058333 1.058334 h -1.058333 -1.058333 v 0.529166 0.529167 h 1.058333 1.058333 v 7.408333 7.408334 z m 38.629166,-6.35 h -5.820833 v -5.820834 -5.820833 h 5.820833 5.820834 v 5.820833 5.820834 z m -69.849996,-9.525 h -2.64584 v -1.058334 -1.058333 h 2.64584 2.64583 v 1.058333 1.058334 z"
       id="path20" /><path
       style="fill:#3d2036"
       d="m -121.56982,45.397572 h -0.52916 V -2.2274284 -49.852428 h 47.624996 47.625 V -2.2274284 45.397572 h -2.116666 -2.116667 v -1.058334 -1.058333 h 1.5875 1.5875 v -9.525 -9.525 h -1.5875 -1.5875 v -1.5875 -1.5875 h -9.525 -9.525 v 1.5875 1.5875 h -1.5875 -1.5875 v 9.525 9.525 h 1.5875 1.5875 v 1.058333 1.058334 h -3.175 -3.175 v -3.175 -3.175 h -5.820833 -5.820834 v -4.7625 -4.7625 h 1.058334 1.058333 v -1.058334 -1.058333 h 4.7625 4.7625 v -2.645833 -2.645834 h 1.058333 1.058334 v -0.529166 -0.529167 h -4.233334 -4.233333 v -0.529167 -0.529166 h 1.058333 1.058334 v -0.529167 -0.529167 h 1.058333 1.058333 v -0.529166 -0.529167 h 1.058334 1.058333 v -0.529167 -0.529166 h 1.058333 1.058334 v -0.529167 -0.529167 h 1.058333 1.058333 v -0.529166 -0.529167 h 1.058334 1.058333 v -0.529167 -0.529166 h 1.058333 1.058334 v -0.529167 -0.529167 h 1.058333 1.058333 v -0.529166 -0.529167 h 1.058334 1.058333 v -0.529167 -0.529166 h 1.058333 1.058334 V 9.4142382 8.3559049 h -1.058334 -1.058333 v 0.5291667 0.5291666 h -1.058333 -1.058334 v 0.5291667 0.5291671 h -1.058333 -1.058333 v 0.529166 0.529167 h -1.058334 -1.058333 v 0.529167 0.529166 h -1.058333 -1.058334 v 0.529167 0.529167 h -1.058333 -1.058333 v 0.529166 0.529167 h -1.058334 -1.058333 v 0.529167 0.529166 h -1.058333 -1.058334 v 0.529167 0.529167 h -1.058333 -1.058333 v 0.529166 0.529167 h -1.058334 -1.058333 v 0.529167 0.529166 h -1.058333 -1.058334 v 0.529167 0.529167 h -1.058333 -1.058333 v 0.529166 0.529167 h -1.058334 -1.058333 v 0.529167 0.529166 h -1.058333 -1.058334 v 0.529167 0.529167 h -2.645833 -2.645833 v -0.529167 -0.529167 h -1.058334 -1.058333 v -0.529166 -0.529167 h -1.058333 -1.058334 v -0.529167 -0.529166 h -1.058333 -1.058333 v -0.529167 -0.529167 h -1.058334 -1.058333 v -0.529166 -0.529167 h -1.058333 -1.058334 v -0.529167 -0.529166 h -1.058333 -1.058333 v -0.529167 -0.529167 h -1.058334 -1.058333 v -0.529166 -0.529167 h -1.058333 -1.058334 v -0.529167 -0.529166 h -1.058333 -1.058333 v -0.529167 -0.529167 h -1.058334 -1.058333 v -0.529166 -0.529167 h -1.058333 -1.058334 v -0.529167 -0.529166 h -1.058336 -1.05833 V 9.9434049 9.4142382 h -1.05833 -1.05834 V 8.8850716 8.3559049 h -1.05833 -1.05833 v 1.0583333 1.0583338 h 1.05833 1.05833 v 0.529166 0.529167 h 1.05834 1.05833 v 0.529167 0.529166 h 1.05833 1.058336 v 0.529167 0.529167 h 1.058334 1.058333 v 0.529166 0.529167 h 1.058333 1.058334 v 0.529167 0.529166 h 1.058333 1.058333 v 0.529167 0.529167 h 1.058334 1.058333 v 0.529166 0.529167 h 1.058333 1.058334 v 0.529167 0.529166 h 1.058333 1.058333 v 0.529167 0.529167 h 1.058334 1.058333 v 2.116666 2.116667 h -1.058333 -1.058334 v 0.529167 0.529166 h 1.058334 1.058333 v 2.116667 2.116667 h -3.175 -3.175 v -3.175 -3.175 h 1.058333 1.058334 v -0.529167 -0.529167 h -1.058334 -1.058333 v -0.529166 -0.529167 h -1.058333 -1.058334 v -0.529167 -0.529166 h -1.058333 -1.058333 v 0.529166 0.529167 h -1.058334 -1.058333 v 7.408333 7.408334 h 6.35 6.35 v 1.5875 1.5875 h -6.35 -6.35 v 3.175 3.175 h -7.937503 -7.9375 v -4.7625 -4.7625 h 2.64584 2.64583 v -1.058334 -1.058333 h 1.5875 1.5875 v -1.5875 -1.5875 h 1.5875 1.5875 v -4.7625 -4.7625 h -9.525 -9.525 v 12.170833 12.170834 z m 33.337503,-21.166667 h 1.058333 v -0.529167 -0.529166 h -1.058333 -1.058333 v 0.529166 0.529167 z m 34.925,-3.175 h 1.058333 v -0.529167 -0.529166 h 1.058334 1.058333 v -0.529167 -0.529167 h 1.058333 1.058334 v -0.529166 -0.529167 h 1.058333 1.058333 v -0.529167 -0.529166 h 1.058334 1.058333 v -0.529167 -0.529167 h 1.058333 1.058334 v -0.529166 -0.529167 h 1.058333 1.058333 v -0.529167 -0.529166 h 1.058334 1.058333 v -0.529167 -0.529167 h 1.058333 1.058334 v -0.529166 -0.529167 h -1.058334 -1.058333 v 0.529167 0.529166 h -1.058333 -1.058334 v 0.529167 0.529167 h -1.058333 -1.058333 v 0.529166 0.529167 h -1.058334 -1.058333 v 0.529167 0.529166 h -1.058333 -1.058334 v 0.529167 0.529167 h -1.058333 -1.058333 v 0.529166 0.529167 h -1.058334 -1.058333 v 0.529167 0.529166 h -1.058333 -1.058334 v 0.529167 0.529167 h -1.058333 -1.058333 v 0.529166 0.529167 z m -43.391667,-1.058333 h 1.058334 v -0.529167 -0.529167 h -1.058334 -1.058333 v -0.529166 -0.529167 h -1.058333 -1.058334 v -0.529167 -0.529166 h -1.058336 -1.05833 v -0.529167 -0.529167 h -1.05833 -1.05834 v -0.529166 -0.529167 h -1.05833 -1.05833 v -0.529167 -0.529166 h -1.05834 -1.05833 v -0.529167 -0.529167 h -1.05833 -1.05834 v -0.529166 -0.529167 h -1.05833 -1.05833 v 0.529167 0.529166 h 1.05833 1.05833 v 0.529167 0.529167 h 1.05834 1.05833 v 0.529166 0.529167 h 1.05833 1.05834 v 0.529167 0.529166 h 1.05833 1.05833 v 0.529167 0.529167 h 1.05834 1.05833 v 0.529166 0.529167 h 1.05833 1.058336 v 0.529167 0.529166 h 1.058334 1.058333 v 0.529167 0.529167 z m 9.525,-5.291667 h 1.058334 v -0.529167 -0.529166 h 0.529166 0.529167 v -1.058334 -1.058333 h -0.529167 -0.529166 v -0.529167 -0.529166 h -1.058334 -1.058333 v 0.529166 0.529167 h -0.529167 -0.529166 v 1.058333 1.058334 h 0.529166 0.529167 v 0.529166 0.529167 z m 13.758334,0 h 1.058333 v -0.529167 -0.529166 h 0.529167 0.529166 v -1.058334 -1.058333 h -0.529166 -0.529167 v -0.529167 -0.529166 h -1.058333 -1.058334 v 0.529166 0.529167 h -0.529166 -0.529167 v 1.058333 1.058334 h 0.529167 0.529166 v 0.529166 0.529167 z m 3.175,-11.6416668 h 1.058333 V 2.5350716 2.0059049 h 0.529167 0.529166 V 0.94757156 -0.11076177 h -0.529166 -0.529167 V -0.63992844 -1.1690951 h -1.058333 -1.058334 v 0.52916666 0.52916667 h -0.529166 -0.529167 V 0.94757156 2.0059049 h 0.529167 0.529166 V 2.5350716 3.0642382 Z M -83.998984,2.0059049 h 1.058334 V 1.4767382 0.94757156 h 0.529166 0.529167 V -0.11076177 -1.1690951 h -0.529167 -0.529166 v -0.5291667 -0.5291666 h -1.058334 -1.058333 v 0.5291666 0.5291667 h -0.529167 -0.529166 v 1.05833333 1.05833333 h 0.529166 0.529167 V 1.4767382 2.0059049 Z m -8.466666,-2.11666667 h 1.058333 V -0.63992844 -1.1690951 h 0.529167 0.529166 v -1.5875 -1.5875 h -0.529166 -0.529167 v -0.5291667 -0.5291666 h -1.058333 -1.058334 v 0.5291666 0.5291667 h -0.529166 -0.529167 v 1.5875 1.5875 h 0.529167 0.529166 v 0.52916666 0.52916667 z m 16.933333,0 h 1.058333 V -0.63992844 -1.1690951 h 0.529167 0.529167 v -1.0583333 -1.0583334 h -0.529167 -0.529167 v -0.5291666 -0.5291667 h -1.058333 -1.058333 v 0.5291667 0.5291666 h -0.529167 -0.529167 v 1.0583334 1.0583333 h 0.529167 0.529167 v 0.52916666 0.52916667 z M -77.648984,-10.694095 h 1.058334 v -0.529167 -0.529166 h 0.529166 0.529167 v -1.058334 -1.058333 h -0.529167 -0.529166 v -0.529167 -0.529166 h -1.058334 -1.058333 v 0.529166 0.529167 h -0.529167 -0.529166 v 1.058333 1.058334 h 0.529166 0.529167 v 0.529166 0.529167 z m 10.583334,-1.058333 h 1.058333 v -0.529167 -0.529167 h 0.529167 0.529166 v -1.058333 -1.058333 h -0.529166 -0.529167 v -0.529167 -0.529167 h -1.058333 -1.058334 v 0.529167 0.529167 h -0.529166 -0.529167 v 1.058333 1.058333 h 0.529167 0.529166 v 0.529167 0.529167 z m -16.933334,-3.175 h 1.058334 v -0.529167 -0.529167 h 0.529166 0.529167 v -1.058333 -1.058333 h -0.529167 -0.529166 v -0.529167 -0.529167 h -1.058334 -1.058333 v 0.529167 0.529167 h -0.529167 -0.529166 v 1.058333 1.058333 h 0.529166 0.529167 v 0.529167 0.529167 z m 9.525,0 h 1.058334 v -0.529167 -0.529167 h 0.529166 0.529167 v -1.058333 -1.058333 h -0.529167 -0.529166 v -0.529167 -0.529167 h -1.058334 -1.058333 v 0.529167 0.529167 h -0.529167 -0.529166 v 1.058333 1.058333 h 0.529166 0.529167 v 0.529167 0.529167 z m 11.641667,0 h 1.058333 v -0.529167 -0.529167 h 0.529167 0.529167 v -1.058333 -1.058333 h -0.529167 -0.529167 v -0.529167 -0.529167 h 1.058334 1.058333 v -0.529166 -0.529167 h 0.529167 0.529166 v -1.058333 -1.058334 h -0.529166 -0.529167 v -0.529166 -0.529167 h -1.058333 -1.058334 v 0.529167 0.529166 h -0.529166 -0.529167 v 1.058334 1.058333 h 0.529167 0.529166 v 0.529167 0.529166 h -1.058333 -1.058333 v 0.529167 0.529167 h -0.529167 -0.529167 v 1.058333 1.058333 h 0.529167 0.529167 v 0.529167 0.529167 z m -16.933333,60.325 h -5.291667 v -1.5875 -1.5875 h 1.5875 1.5875 v -1.5875 -1.5875 h 1.5875 1.5875 v -4.7625 -4.7625 h 1.058333 1.058334 v -0.529167 -0.529167 h -1.058334 -1.058333 v -2.116666 -2.116667 h 1.058333 1.058334 v 0.529167 0.529166 h 2.116666 2.116667 v 1.058334 1.058333 h -1.058333 -1.058334 v 1.058333 1.058334 h -1.058333 -1.058333 v 0.529166 0.529167 h 1.058333 1.058333 v 7.408333 7.408334 z m 38.629166,-6.35 h -5.820833 v -5.820834 -5.820833 h 5.820833 5.820834 v 5.820833 5.820834 z m -69.849996,-9.525 h -2.64584 v -1.058334 -1.058333 h 2.64584 2.64583 v 1.058333 1.058334 z"
       id="path19" /><path
       style="fill:#1e0d1b"
       d="m -121.56982,45.397572 h -0.52916 V -2.2274284 -49.852428 h 47.624996 47.625 V -2.2274284 45.397572 h -2.116666 -2.116667 v -1.058334 -1.058333 h 1.5875 1.5875 v -9.525 -9.525 h -1.5875 -1.5875 v -1.5875 -1.5875 h -9.525 -9.525 v 1.5875 1.5875 h -1.5875 -1.5875 v 9.525 9.525 h 1.5875 1.5875 v 1.058333 1.058334 h -3.175 -3.175 v -3.175 -3.175 h -5.820833 -5.820834 v -4.7625 -4.7625 h 1.058334 1.058333 v -1.058334 -1.058333 h 4.7625 4.7625 v -2.645833 -2.645834 h 1.058333 1.058334 v -0.529166 -0.529167 h -4.233334 -4.233333 v -0.529167 -0.529166 h 1.058333 1.058334 v -0.529167 -0.529167 h 1.058333 1.058333 v -0.529166 -0.529167 h 1.058334 1.058333 v -0.529167 -0.529166 h 1.058333 1.058334 v -0.529167 -0.529167 h 1.058333 1.058333 v -0.529166 -0.529167 h 1.058334 1.058333 v -0.529167 -0.529166 h 1.058333 1.058334 v -0.529167 -0.529167 h 1.058333 1.058333 v -0.529166 -0.529167 h 1.058334 1.058333 v -0.529167 -0.529166 h 1.058333 1.058334 V 9.9434049 9.4142382 h 0.529166 0.529167 V -8.5774284 -26.569095 h -0.529167 -0.529166 v -0.529167 -0.529166 h -1.058334 -1.058333 v -0.529167 -0.529167 h -1.058333 -1.058334 v -0.529166 -0.529167 h -1.058333 -1.058333 v -0.529167 -0.529166 h -1.058334 -1.058333 v -0.529167 -0.529167 h -1.058333 -1.058334 v -0.529166 -0.529167 h -1.058333 -1.058333 v -0.529167 -0.529166 h -1.058334 -1.058333 v -0.529167 -0.529167 h -1.058333 -1.058334 v -0.529166 -0.529167 h -1.058333 -1.058333 v -0.529167 -0.529166 h -1.058334 -1.058333 v -0.529167 -0.529167 h -1.058333 -1.058334 v -0.529166 -0.529167 h -1.058333 -1.058333 v -0.529167 -0.529166 h -1.058334 -1.058333 v -0.529167 -0.529167 h -1.058333 -1.058334 v -0.529166 -0.529167 h -2.645833 -2.645833 v 0.529167 0.529166 h -1.058334 -1.058333 v 0.529167 0.529167 h -1.058333 -1.058334 v 0.529166 0.529167 h -1.058333 -1.058333 v 0.529167 0.529166 h -1.058334 -1.058333 v 0.529167 0.529167 h -1.058333 -1.058334 v 0.529166 0.529167 h -1.058333 -1.058333 v 0.529167 0.529166 h -1.058334 -1.058333 v 0.529167 0.529167 h -1.058333 -1.058334 v 0.529166 0.529167 h -1.058333 -1.058333 v 0.529167 0.529166 h -1.058334 -1.058333 v 0.529167 0.529167 h -1.058333 -1.058334 v 0.529166 0.529167 h -1.058336 -1.05833 v 0.529167 0.529166 h -1.05833 -1.05834 v 0.529167 0.529167 h -1.05833 -1.05833 v 0.529166 0.529167 h -0.52917 -0.52917 V -8.5774284 9.4142382 h 0.52917 0.52917 v 0.5291667 0.5291671 h 1.05833 1.05833 v 0.529166 0.529167 h 1.05834 1.05833 v 0.529167 0.529166 h 1.05833 1.058336 v 0.529167 0.529167 h 1.058334 1.058333 v 0.529166 0.529167 h 1.058333 1.058334 v 0.529167 0.529166 h 1.058333 1.058333 v 0.529167 0.529167 h 1.058334 1.058333 v 0.529166 0.529167 h 1.058333 1.058334 v 0.529167 0.529166 h 1.058333 1.058333 v 0.529167 0.529167 h 1.058334 1.058333 v 2.116666 2.116667 h -1.058333 -1.058334 v 0.529167 0.529166 h 1.058334 1.058333 v 2.116667 2.116667 h -3.175 -3.175 v -3.175 -3.175 h 1.058333 1.058334 v -0.529167 -0.529167 h -1.058334 -1.058333 v -0.529166 -0.529167 h -1.058333 -1.058334 v -0.529167 -0.529166 h -1.058333 -1.058333 v 0.529166 0.529167 h -1.058334 -1.058333 v 7.408333 7.408334 h 6.35 6.35 v 1.5875 1.5875 h -6.35 -6.35 v 3.175 3.175 h -7.937503 -7.9375 v -4.7625 -4.7625 h 2.64584 2.64583 v -1.058334 -1.058333 h 1.5875 1.5875 v -1.5875 -1.5875 h 1.5875 1.5875 v -4.7625 -4.7625 h -9.525 -9.525 v 12.170833 12.170834 z m 33.337503,-21.166667 h 1.058333 v -0.529167 -0.529166 h -1.058333 -1.058333 v 0.529166 0.529167 z m 34.925,-3.175 h 1.058333 v -0.529167 -0.529166 h 1.058334 1.058333 v -0.529167 -0.529167 h 1.058333 1.058334 v -0.529166 -0.529167 h 1.058333 1.058333 v -0.529167 -0.529166 h 1.058334 1.058333 v -0.529167 -0.529167 h 1.058333 1.058334 v -0.529166 -0.529167 h 1.058333 1.058333 v -0.529167 -0.529166 h 1.058334 1.058333 v -0.529167 -0.529167 h 1.058333 1.058334 V -8.5774284 -29.744095 h -1.058334 -1.058333 v -0.529167 -0.529166 h -1.058333 -1.058334 v -0.529167 -0.529167 h -1.058333 -1.058333 v -0.529166 -0.529167 h -1.058334 -1.058333 v -0.529167 -0.529166 h -1.058333 -1.058334 v -0.529167 -0.529167 h -1.058333 -1.058333 v -0.529166 -0.529167 h -1.058334 -1.058333 v -0.529167 -0.529166 h -1.058333 -1.058334 v -0.529167 -0.529167 h -1.058333 -1.058333 v -0.529166 -0.529167 h -1.058334 -1.058333 v -0.529167 -0.529166 h -1.058333 -1.058334 v -0.529167 -0.529167 h -1.058333 -1.058333 v -0.529166 -0.529167 h -1.058334 -1.058333 v -0.529167 -0.529166 h -1.058333 -1.058334 v -0.529167 -0.529167 h -1.058333 -1.058333 v -0.529166 -0.529167 h -1.058334 -1.058333 v -0.529167 -0.529166 h -1.058333 -1.058334 v -0.529167 -0.529167 h -2.645833 -2.645833 v 0.529167 0.529167 h -1.058334 -1.058333 v 0.529166 0.529167 h -1.058333 -1.058334 v 0.529167 0.529166 h -1.058333 -1.058333 v 0.529167 0.529167 h -1.058334 -1.058333 v 0.529166 0.529167 h -1.058333 -1.058334 v 0.529167 0.529166 h -1.058333 -1.058333 v 0.529167 0.529167 h -1.058334 -1.058333 v 0.529166 0.529167 h -1.058333 -1.058334 v 0.529167 0.529166 h -1.058333 -1.058333 v 0.529167 0.529167 h -1.058334 -1.058333 v 0.529166 0.529167 h -1.058333 -1.058334 v 0.529167 0.529166 h -1.058336 -1.05833 v 0.529167 0.529167 h -1.05833 -1.05834 v 0.529166 0.529167 h -1.05833 -1.05833 v 0.529167 0.529166 h -1.05834 -1.05833 v 0.529167 0.529167 h -1.05833 -1.05834 v 0.529166 0.529167 h -1.05833 -1.05833 V -8.5774284 12.589238 h 1.05833 1.05833 v 0.529167 0.529167 h 1.05834 1.05833 v 0.529166 0.529167 h 1.05833 1.05834 v 0.529167 0.529166 h 1.05833 1.05833 v 0.529167 0.529167 h 1.05834 1.05833 v 0.529166 0.529167 h 1.05833 1.058336 v 0.529167 0.529166 h 1.058334 1.058333 v 0.529167 0.529167 h 1.058333 1.058334 v -0.529167 -0.529167 h -1.058334 -1.058333 v -0.529166 -0.529167 h -1.058333 -1.058334 v -0.529167 -0.529166 h -1.058336 -1.05833 v -0.529167 -0.529167 h -1.05833 -1.05834 v -0.529166 -0.529167 h -1.05833 -1.05833 v -0.529167 -0.529166 h -1.05834 -1.05833 v -0.529167 -0.529167 h -1.05833 -1.05834 v -1.058333 -1.058333 h -0.52916 -0.52917 V -9.1065951 -28.685762 h 0.52917 0.52916 v -0.529166 -0.529167 h 1.05834 1.05833 v -0.529167 -0.529166 h 1.05833 1.05834 v -0.529167 -0.529167 h 1.05833 1.05833 v -0.529166 -0.529167 h 1.05834 1.05833 v -0.529167 -0.529166 h 1.05833 1.058336 v -0.529167 -0.529167 h 1.058334 1.058333 v -0.529166 -0.529167 h 1.058333 1.058334 v -0.529167 -0.529166 h 1.058333 1.058333 v -0.529167 -0.529167 h 1.058334 1.058333 v -0.529166 -0.529167 h 1.058333 1.058334 v -0.529167 -0.529166 h 1.058333 1.058333 v -0.529167 -0.529167 h 1.058334 1.058333 v -0.529166 -0.529167 h 1.058333 1.058334 v -0.529167 -0.529166 h 1.058333 1.058333 v -0.529167 -0.529167 h 1.058334 1.058333 v -0.529166 -0.529167 h 1.058333 1.058334 v -0.529167 -0.529166 h 2.645833 2.645833 v 0.529166 0.529167 h 1.058334 1.058333 v 0.529167 0.529166 h 1.058333 1.058334 v 0.529167 0.529167 h 1.058333 1.058333 v 0.529166 0.529167 h 1.058334 1.058333 v 0.529167 0.529166 h 1.058333 1.058334 v 0.529167 0.529167 h 1.058333 1.058333 v 0.529166 0.529167 h 1.058334 1.058333 v 0.529167 0.529166 h 1.058333 1.058334 v 0.529167 0.529167 h 1.058333 1.058333 v 0.529166 0.529167 h 1.058334 1.058333 v 0.529167 0.529166 h 1.058333 1.058334 v 0.529167 0.529167 h 1.058333 1.058333 v 0.529166 0.529167 h 1.058334 1.058333 v 0.529167 0.529166 h 1.058333 1.058334 v 0.529167 0.529167 h 1.058333 1.058333 v 0.529166 0.529167 h 1.058334 1.058333 v 0.529167 0.529166 h 0.529167 0.529166 V -9.1065951 10.472572 h -0.529166 -0.529167 v 1.058333 1.058333 h -1.058333 -1.058334 v 0.529167 0.529167 h -1.058333 -1.058333 v 0.529166 0.529167 h -1.058334 -1.058333 v 0.529167 0.529166 h -1.058333 -1.058334 v 0.529167 0.529167 h -1.058333 -1.058333 v 0.529166 0.529167 h -1.058334 -1.058333 v 0.529167 0.529166 h -1.058333 -1.058334 v 0.529167 0.529167 h -1.058333 -1.058333 v 0.529166 0.529167 z M -79.76565,45.397572 h -5.291667 v -1.5875 -1.5875 h 1.5875 1.5875 v -1.5875 -1.5875 h 1.5875 1.5875 v -4.7625 -4.7625 h 1.058333 1.058334 v -0.529167 -0.529167 h -1.058334 -1.058333 v -2.116666 -2.116667 h 1.058333 1.058334 v 0.529167 0.529166 h 2.116666 2.116667 v 1.058334 1.058333 h -1.058333 -1.058334 v 1.058333 1.058334 h -1.058333 -1.058333 v 0.529166 0.529167 h 1.058333 1.058333 v 7.408333 7.408334 z m 38.629166,-6.35 h -5.820833 v -5.820834 -5.820833 h 5.820833 5.820834 v 5.820833 5.820834 z m -69.849996,-9.525 h -2.64584 v -1.058334 -1.058333 h 2.64584 2.64583 v 1.058333 1.058334 z m 37.041663,-6.35 h -2.645833 v -0.529167 -0.529167 h -1.058334 -1.058333 v -0.529166 -0.529167 h -1.058333 -1.058334 v -0.529167 -0.529166 h -1.058333 -1.058333 v -0.529167 -0.529167 h -1.058334 -1.058333 v -0.529166 -0.529167 h -1.058333 -1.058334 v -0.529167 -0.529166 h -1.058333 -1.058333 v -0.529167 -0.529167 h -1.058334 -1.058333 v -0.529166 -0.529167 h -1.058333 -1.058334 v -0.529167 -0.529166 h -1.058333 -1.058333 v -0.529167 -0.529167 h -1.058334 -1.058333 v -0.529166 -0.529167 h -1.058333 -1.058334 v -0.529167 -0.529166 h -1.058336 -1.05833 V 9.9434049 9.4142382 h -1.05833 -1.05834 V 8.3559049 7.2975716 h -0.52916 -0.52917 V -9.1065951 -25.510762 h 0.52917 0.52916 v -0.529166 -0.529167 h 1.05834 1.05833 v -0.529167 -0.529166 h 1.05833 1.058336 v -0.529167 -0.529167 h 1.058334 1.058333 v -0.529166 -0.529167 h 1.058333 1.058334 v -0.529167 -0.529166 h 1.058333 1.058333 v -0.529167 -0.529167 h 1.058334 1.058333 v -0.529166 -0.529167 h 1.058333 1.058334 v -0.529167 -0.529166 h 1.058333 1.058333 v -0.529167 -0.529167 h 1.058334 1.058333 v -0.529166 -0.529167 h 1.058333 1.058334 v -0.529167 -0.529166 h 1.058333 1.058333 v -0.529167 -0.529167 h 1.058334 1.058333 v -0.529166 -0.529167 h 1.058333 1.058334 v -0.529167 -0.529166 h 1.058333 1.058333 v 10.583333 10.583333 h -0.529166 -0.529167 v 0.529167 0.529167 h -0.529167 -0.529166 v 1.058333 1.058333 h 0.529166 0.529167 v 0.529167 0.529167 h 0.529167 0.529166 v 3.704166 3.7041669 h -1.058333 -1.058333 v 0.5291667 0.5291666 h 2.645833 2.645833 v -0.5291666 -0.5291667 h -1.058333 -1.058333 v -4.2333329 -4.233334 h 0.529166 0.529167 v -1.058333 -1.058333 h -0.529167 -0.529166 v -11.1125 -11.1125 h 1.058333 1.058333 v 0.529166 0.529167 h 1.058334 1.058333 v 0.529167 0.529166 h 1.058333 1.058334 v 0.529167 0.529167 h 1.058333 1.058333 v 0.529166 0.529167 h 1.058334 1.058333 v 0.529167 0.529166 h 1.058333 1.058334 v 0.529167 0.529167 h 1.058333 1.058333 v 0.529166 0.529167 h 1.058334 1.058333 v 0.529167 0.529166 h 1.058333 1.058334 v 0.529167 0.529167 h 1.058333 1.058333 v 0.529166 0.529167 h 1.058334 1.058333 v 0.529167 0.529166 h 1.058333 1.058334 v 0.529167 0.529167 h 1.058333 1.058333 v 0.529166 0.529167 h 1.058334 1.058333 v 0.529167 0.529166 h 0.529167 0.529166 V -9.1065951 7.2975716 h -0.529166 -0.529167 v 1.0583333 1.0583333 h -1.058333 -1.058334 v 0.5291667 0.5291671 h -1.058333 -1.058333 v 0.529166 0.529167 h -1.058334 -1.058333 v 0.529167 0.529166 h -1.058333 -1.058334 v 0.529167 0.529167 h -1.058333 -1.058333 v 0.529166 0.529167 h -1.058334 -1.058333 v 0.529167 0.529166 h -1.058333 -1.058334 v 0.529167 0.529167 h -1.058333 -1.058333 v 0.529166 0.529167 h -1.058334 -1.058333 v 0.529167 0.529166 h -1.058333 -1.058334 v 0.529167 0.529167 h -1.058333 -1.058333 v 0.529166 0.529167 h -1.058334 -1.058333 v 0.529167 0.529166 h -1.058333 -1.058334 v 0.529167 0.529167 z m -13.229167,-8.466667 h 1.058334 v -0.529167 -0.529166 h 0.529166 0.529167 v -1.058334 -1.058333 h -0.529167 -0.529166 v -0.529167 -0.529166 h -1.058334 -1.058333 v 0.529166 0.529167 h -0.529167 -0.529166 v 1.058333 1.058334 h 0.529166 0.529167 v 0.529166 0.529167 z m 13.758334,0 h 1.058333 v -0.529167 -0.529166 h 0.529167 0.529166 v -1.058334 -1.058333 h -0.529166 -0.529167 v -0.529167 -0.529166 h -1.058333 -1.058334 v 0.529166 0.529167 h -0.529166 -0.529167 v 1.058333 1.058334 h 0.529167 0.529166 v 0.529166 0.529167 z m -29.63333,-7.4083334 h 1.05833 V 6.7684049 6.2392382 h 1.05833 1.058336 V 5.7100716 5.1809049 h 1.058334 1.058333 V 4.6517382 4.1225716 h 1.058333 1.058334 V 3.5934049 3.0642382 h 1.058333 1.058333 V 2.5350716 2.0059049 h 1.058334 1.058333 V 1.4767382 0.94757156 h 1.058333 1.058334 V 0.4184049 -0.11076177 h 1.058333 1.058333 V -0.63992844 -1.1690951 h 0.529167 0.529167 v 1.05833333 1.05833333 h 0.529166 0.529167 V 1.4767382 2.0059049 h 1.058333 1.058334 V 1.4767382 0.94757156 h 0.529166 0.529167 V -0.11076177 -1.1690951 h -0.529167 -0.529166 v -1.0583333 -1.0583334 h 1.058333 1.058333 v -0.5291666 -0.5291667 h 1.058334 1.058333 v -0.5291667 -0.5291666 h 1.058333 1.058334 v -0.5291667 -0.5291667 h -1.058334 -1.058333 v 0.5291667 0.5291667 h -1.058333 -1.058334 v 0.5291666 0.5291667 h -1.058333 -1.058333 v 0.5291667 0.5291666 h -1.058334 -1.058333 v 0.5291667 0.5291667 h -1.058333 -1.058334 v 0.5291666 0.5291667 h -1.058333 -1.058333 v 0.52916666 0.52916667 h -1.058334 -1.058333 V -0.63992844 -1.1690951 h 0.529167 0.529166 v -1.5875 -1.5875 h -0.529166 -0.529167 v -0.5291667 -0.5291666 h -1.058333 -1.058334 v 0.5291666 0.5291667 h -0.529166 -0.529167 v 1.5875 1.5875 h 0.529167 0.529166 v 0.52916666 0.52916667 h 1.058334 1.058333 V 0.4184049 0.94757156 h -1.058333 -1.058334 V 1.4767382 2.0059049 h -1.058333 -1.058333 v 0.5291667 0.5291666 h -1.058334 -1.058333 v 0.5291667 0.5291667 h -1.058333 -1.058334 v 0.5291666 0.5291667 h -1.058336 -1.05833 v 0.5291667 0.5291666 h -1.05833 -1.05834 v 0.5291667 0.5291667 z m 58.20833,0 h 1.058333 V 6.7684049 6.2392382 h -1.058333 -1.058334 V 5.7100716 5.1809049 h -1.058333 -1.058333 V 4.6517382 4.1225716 h -1.058334 -1.058333 V 3.5934049 3.0642382 h -1.058333 -1.058334 V 2.5350716 2.0059049 h -1.058333 -1.058333 V 1.4767382 0.94757156 h -1.058334 -1.058333 V 0.4184049 -0.11076177 h -1.058333 -1.058334 V -0.63992844 -1.1690951 h -1.058333 -1.058333 v -0.5291667 -0.5291666 h -1.058334 -1.058333 v -0.5291667 -0.5291667 h -1.058333 -1.058334 v -0.5291666 -0.5291667 h -1.058333 -1.058333 v -0.5291667 -0.5291666 h -1.058334 -1.058333 v -0.5291667 -0.5291667 h -1.058333 -1.058334 v 0.5291667 0.5291667 h 1.058334 1.058333 v 0.5291666 0.5291667 h 1.058333 1.058334 v 0.5291667 0.5291666 h 1.058333 1.058333 v 0.5291667 0.5291667 h 1.058334 1.058333 v 0.5291666 0.5291667 h 1.058333 1.058334 v 0.52916666 0.52916667 h 1.058333 1.058333 V 0.4184049 0.94757156 h 1.058334 1.058333 V 1.4767382 2.0059049 h 1.058333 1.058334 v 0.5291667 0.5291666 h 1.058333 1.058333 v 0.5291667 0.5291667 h 1.058334 1.058333 v 0.5291666 0.5291667 h 1.058333 1.058334 v 0.5291667 0.5291666 h 1.058333 1.058333 v 0.5291667 0.5291667 z m -25.4,-4.2333334 h 1.058333 V 2.5350716 2.0059049 h 0.529167 0.529166 V 0.94757156 -0.11076177 h -0.529166 -0.529167 V -0.63992844 -1.1690951 h -1.058333 -1.058334 v 0.52916666 0.52916667 h -0.529166 -0.529167 V 0.94757156 2.0059049 h 0.529167 0.529166 v 0.5291667 0.5291666 z m -5.291667,-3.17499997 h 1.058333 V -0.63992844 -1.1690951 h 0.529167 0.529167 v -1.0583333 -1.0583334 h -0.529167 -0.529167 v -0.5291666 -0.5291667 h -1.058333 -1.058333 v 0.5291667 0.5291666 h -0.529167 -0.529167 v 1.0583334 1.0583333 h 0.529167 0.529167 v 0.52916666 0.52916667 z M -79.76565,-7.5190951 h 1.058333 v -0.5291667 -0.5291666 h 0.529167 0.529166 v -1.0583334 -1.0583332 h 0.529167 0.529167 v -0.529167 -0.529166 h 0.529166 0.529167 v -1.058334 -1.058333 h -0.529167 -0.529166 v -0.529167 -0.529166 h -1.058334 -1.058333 v 0.529166 0.529167 h -0.529167 -0.529166 v 1.058333 1.058334 h -0.529167 -0.529167 v 0.529166 0.529167 h -0.529166 -0.529167 v 1.0583332 1.0583334 h 0.529167 0.529166 v 0.5291666 0.5291667 z m 12.7,-4.2333329 h 1.058333 v -0.529167 -0.529167 h 0.529167 0.529166 v -1.058333 -1.058333 h -0.529166 -0.529167 v -0.529167 -0.529167 h -1.058333 -1.058334 v 0.529167 0.529167 h -0.529166 -0.529167 v 1.058333 1.058333 h 0.529167 0.529166 v 0.529167 0.529167 z m -16.933334,-3.175 h 1.058334 v -0.529167 -0.529167 h 0.529166 0.529167 v -1.058333 -1.058333 h -0.529167 -0.529166 v -0.529167 -0.529167 h -1.058334 -1.058333 v 0.529167 0.529167 h -0.529167 -0.529166 v 1.058333 1.058333 h 0.529166 0.529167 v 0.529167 0.529167 z m 21.166667,0 h 1.058333 v -0.529167 -0.529167 h 0.529167 0.529167 v -1.058333 -1.058333 h -0.529167 -0.529167 v -0.529167 -0.529167 h 1.058334 1.058333 v -0.529166 -0.529167 h 0.529167 0.529166 v -1.058333 -1.058334 h -0.529166 -0.529167 v -0.529166 -0.529167 h -1.058333 -1.058334 v 0.529167 0.529166 h -0.529166 -0.529167 v 1.058334 1.058333 h 0.529167 0.529166 v 0.529167 0.529166 h -1.058333 -1.058333 v 0.529167 0.529167 h -0.529167 -0.529167 v 1.058333 1.058333 h 0.529167 0.529167 v 0.529167 0.529167 z"
       id="path18" /></g></svg>
